/* XPM */
static char *_e56daaafe0b458fadbd1a8c6d53a7be2WPRY6KmL5UXBar4[] = {
/* columns rows colors chars-per-pixel */
"64 64 13 1 ",
"  c #AF942A",
". c #B99C2C",
"X c #CCAC31",
"o c #DBB934",
"O c #E7C337",
"+ c #FFD73D",
"@ c #CCB664",
"# c #E2C75D",
"$ c #ECCF5F",
"% c #FFDF64",
"& c #FFE47D",
"* c magenta",
"= c #FFE997",
/* pixels */
"****************************************************************",
"****************************************************************",
"****************************************************************",
"****************************************************************",
"****************************************************************",
"****************************+O+++*******************************",
"************************%%++++++O++++***************************",
"***********************==++++++++++OOO**************************",
"**********************%++X***++X***OOO.*************************",
"**********************$+@*****O*****OO.*************************",
"**********************$X*************O.*************************",
"**********************#X*************O.*************************",
"**********************O%@*****O*****OO.*************************",
"***********************$$@***OO.***OO.**************************",
"************************$O&&&+.OOOOO.***************************",
"*************************$%&&@+XOOO.****************************",
"**************************+==&@+OO.*****************************",
"****************************==+..*******************************",
"*****************************=+.********************************",
"*****************************%O.********************************",
"*****************************$O.********************************",
"*****************************$O.********************************",
"*****************************$O.********************************",
"*****************************$O.********************************",
"*****************************$O.********************************",
"*****************************$O.********************************",
"*****************************$O.********************************",
"*****************************$O.********************************",
"*****************************$O.********************************",
"*****************************=O.********************************",
"*****************************=&.********************************",
"*****************************=&.********************************",
"*****************************=&.********************************",
"*****************************=&X********************************",
"*****************************=&X********************************",
"*****************************=&X********************************",
"*****************************%&X********************************",
"*****************************=+X********************************",
"*****************************%+X********************************",
"*****************************$+X********************************",
"*****************************$O ********************************",
"*****************************$O.********************************",
"****************************$$OOX*******************************",
"****************************$OOOX*******************************",
"****************************$OOO.*******************************",
"****************************$OOO.*******************************",
"****************************$OOO.*******************************",
"****************************OOo..*******************************",
"****************************$OXXX*******************************",
"***************************%%++++X******************************",
"***************************%&+++XX******************************",
"*****************************+XX********************************",
"*****************************$+X********************************",
"*****************************%+X********************************",
"*****************************%+XX+**++**************************",
"*****************************%+XX+++++**************************",
"*****************************%OXX+++X***************************",
"*****************************#+XX+++X***************************",
"*****************************%+X X+++o**************************",
"*****************************%&XX+**++**************************",
"*****************************=&X********************************",
"*****************************&&X********************************",
"****************************************************************",
"****************************************************************"
};
